<svg width="32" height="32" viewBox="0 0 32 32" fill="none" xmlns="http://www.w3.org/2000/svg">
<circle cx="16.001" cy="16" r="16" fill="#5444F2"/>
<path d="M14.089 8.608V16.496C14.089 17.072 14.0356 17.5733 13.929 18C13.833 18.4267 13.6676 18.8213 13.433 19.184C13.1983 19.536 12.8623 19.808 12.425 20C11.9876 20.1813 11.449 20.272 10.809 20.272C9.60364 20.272 8.73431 19.9733 8.20098 19.376C7.66764 18.7787 7.40098 17.8827 7.40098 16.688C7.40098 16.5387 7.40631 16.3947 7.41698 16.256H8.87298V16.656C8.87298 17.424 9.00098 18.0107 9.25698 18.416C9.52364 18.8213 10.0356 19.024 10.793 19.024C11.1343 19.024 11.417 18.9707 11.641 18.864C11.8756 18.7573 12.0516 18.6347 12.169 18.496C12.297 18.3467 12.393 18.1387 12.457 17.872C12.521 17.6053 12.5583 17.3707 12.569 17.168C12.5796 16.9653 12.585 16.6933 12.585 16.352V8.608H14.089ZM24.4659 8.608V9.92H20.6419V20H19.1379V9.92H15.3139V8.608H24.4659Z" fill="white"/>
</svg>
